<?xml version="1.0" encoding="utf-8"?>
<!-- Generator: Adobe Illustrator 22.0.1, SVG Export Plug-In . SVG Version: 6.00 Build 0)  -->
<svg version="1.1" xmlns="http://www.w3.org/2000/svg" xmlns:xlink="http://www.w3.org/1999/xlink" x="0px" y="0px"
	 viewBox="0 0 283.5 283.5" style="enable-background:new 0 0 283.5 283.5;" xml:space="preserve">
<style type="text/css">
	.st0{fill:#FFFFFF;}
	.st1{fill:#FFFFFF;stroke:#FFFFFF;stroke-miterlimit:10;}
</style>
<g id="Слой_3">
	<rect x="-71" y="-63" width="425.2" height="425.2"/>
</g>
<g id="Слой_4">
	<g>
		<line class="st0" x1="32.3" y1="113.8" x2="67.7" y2="77.9"/>
		<polygon class="st0" points="32.2,113.7 66.8,77 68.6,78.8 32.4,113.9 		"/>
	</g>
	<g>
		<path class="st0" d="M216.6,77.7c-9.5,0.1-18.9,0.1-28.4,0.2l-28.4,0c-9.5,0-18.9-0.1-28.4-0.1l-28.4-0.1l-0.1,0l-0.1,0
			c-0.3,0-0.8-0.1-1.2-0.1c-0.4,0-0.9,0.1-1.3,0.1c-0.4,0.1-0.9,0.2-1.3,0.3l-1.3,0.5c-0.8,0.5-1.6,0.9-2.3,1.5
			c-0.3,0.3-0.8,0.5-1.1,0.9l-0.9,1c-2.5,2.9-3.9,6.6-5.2,10.3l-0.8,2.9c-0.1,0.5-0.3,0.9-0.4,1.4l-0.3,1.5c-0.4,2-0.8,3.9-1,5.9
			l-0.4,3l-0.2,1.5l-0.1,1.5c-0.1,2-0.3,4-0.4,6h-0.2c-0.1-4-0.2-8.1,0.1-12.1c0.1-2,0.4-4,0.7-6l0.2-1.5c0.1-0.5,0.2-1,0.3-1.5
			l0.7-3c1.1-3.9,2.6-7.9,5.3-11.2l1-1.2c0.3-0.4,0.8-0.7,1.2-1.1c0.8-0.8,1.7-1.3,2.7-1.9l1.5-0.7c0.5-0.2,1.1-0.3,1.6-0.5
			c0.6-0.1,1.1-0.2,1.7-0.2c0.6,0,1.1,0,1.8,0.1l-0.2,0l28.4-0.1c9.5,0,18.9-0.1,28.4-0.1l28.4,0c9.5,0.1,18.9,0.1,28.4,0.2V77.7z"
			/>
	</g>
	<g>
		<line class="st0" x1="251.4" y1="113" x2="215.3" y2="76.4"/>
		<polygon class="st0" points="251.3,113.1 214,77.7 216.5,75.2 251.5,112.9 		"/>
	</g>
	<g>
		<line class="st0" x1="80.2" y1="185.1" x2="139.5" y2="247.5"/>
		<polygon class="st0" points="80.3,185 140.9,246.2 138.1,248.8 80.2,185.2 		"/>
	</g>
	<g>
		<path class="st0" d="M85.5,13.7c0.2,3.9,0.3,7.9,0.4,11.8l0.3,11.8c0.1,3.9,0.2,7.9,0.3,11.8c0,1,0,2,0.1,2.9
			c0.1,0.9,0.2,1.8,0.5,2.7c0.5,1.8,1.2,3.5,2.3,5c2,3.1,5,5.4,8.4,7c3.4,1.6,7.2,2.5,11,2.9c3.8,0.4,7.8,0.5,11.7,0.6l5.9,0.2
			l2.9,0.1l0.7,0l0.1,0c0-0.1,0,0.2,0,0.1l0,0l0,0l-0.2,0l-0.4,0c-0.5,0-1,0-1.5,0v-0.2c0.5,0,1,0,1.5,0l0.4,0l0.2,0l0,0l0,0
			c0,0,0,0.3,0,0.1l-0.1,0l-0.7,0l-2.9,0.1l-5.9,0.2l-5.9,0.2c-1,0-2,0.1-3,0c-1,0-2,0-3,0c-4-0.3-8-0.9-11.8-2.5
			c-3.8-1.6-7.3-4.1-9.6-7.6c-1.2-1.7-2-3.7-2.6-5.7c-0.3-1-0.4-2.1-0.5-3.1c0-1.1,0-2,0-3c0.1-3.9,0.2-7.9,0.3-11.8l0.3-11.8
			c0.1-3.9,0.2-7.9,0.4-11.8H85.5z"/>
	</g>
	<g>
		<line x1="208.5" y1="182.5" x2="137.4" y2="248"/>
		<path class="st0" d="M208.6,182.6c-2.9,2.8-5.8,5.6-8.7,8.4l-8.7,8.4L173.7,216l-17.5,16.6l-17.6,16.6l-2.4-2.6l18-16.2l18-16.1
			l18-16.1l9.1-8c3-2.7,6.1-5.3,9.1-7.9L208.6,182.6z"/>
	</g>
	<g>
		<path class="st0" d="M27.1,76.3c5.7-0.2,11.3-0.3,17-0.5c5.7-0.2,11.3-0.2,17-0.3l-0.1,0c2.9-0.2,5.5,0.4,8.1,1.3
			c2.6,1,4.8,3,6.3,5.3l1,1.8c0.2,0.3,0.3,0.6,0.4,0.9l0.4,0.9c0.6,1.2,0.8,2.6,1.1,3.8c0.2,1.3,0.3,2.6,0.5,3.9l0,3.9h-0.2
			l-0.4-3.9c-0.3-1.3-0.5-2.5-0.9-3.7c-0.8-2.4-1.9-4.7-3.5-6.6l-1.3-1.3c-0.4-0.4-1-0.7-1.4-1.1c-1-0.7-2-1.2-3.1-1.8
			c-2.1-1.1-4.7-1.6-7-1.6l-0.1,0c-5.7-0.1-11.3-0.2-17-0.3c-5.7-0.2-11.3-0.3-17-0.5V76.3z"/>
	</g>
	<g>
		<path class="st0" d="M44.8,68.8l22.3-1l0.1,0c0.3,0,0.9-0.1,1.3-0.2c0.5-0.1,0.9-0.3,1.3-0.5c0.5-0.2,0.8-0.5,1.3-0.6l0.6-0.4
			c0.2-0.1,0.4-0.3,0.6-0.4c1.5-1.3,2.7-3,3.6-4.9c0.3-0.5,0.4-1,0.6-1.5c0.2-0.5,0.4-1,0.5-1.5l0.4-1.6c0.1-0.5,0.3-1.1,0.3-1.6
			c0.2-1.1,0.4-2.2,0.5-3.3l0.3-3.3h0.2l0.1,3.3c0,1.1-0.1,2.2-0.1,3.4c0,1.1-0.3,2.2-0.4,3.4c-0.1,0.6-0.2,1.1-0.4,1.7
			c-0.2,0.6-0.2,1.1-0.4,1.7c-0.7,2.2-1.8,4.4-3.6,6.1c-0.4,0.5-1,0.8-1.5,1.2c-0.6,0.3-1.1,0.6-1.7,0.8c-0.6,0.2-1.2,0.3-1.8,0.4
			c-0.7,0.1-1.2,0.1-2,0l0.1,0l-22.3-1V68.8z"/>
	</g>
	<path class="st1" d="M96.3,135.5c-3.2-4.8-9.4-7.8-18.5-9.1c-2.6-0.4-5.2-0.6-7.6-0.6c-9.2,0-18.2,1.7-27.1,5
		c-6.7,2.5-11.8,5.5-15.3,8.8c-2.3,2.1-3.4,4-3.4,5.8c0,1.1,0.3,2.1,0.9,2.8c0.6,0.8,0.7,1.2,0.4,1.4c-0.3,0.2-0.6,0.1-0.9-0.2
		c-1.4-1.7-2.2-3.8-2.2-6.4c0-4.2,1.7-7.7,5-10.4c4.5-3.6,10.8-6.7,18.9-9.1c8.1-2.4,15.7-3.7,22.8-3.7c7.1,0,13,1,17.5,3
		c9,3.9,13.6,10.5,13.6,20c0,7.7-3.3,15-10,22.1c-7.9,8.3-19.2,13.7-34,16.2c-4.5,0.8-8.5,1.1-12.2,1.1c-12.7,0-20.4-2.6-23-7.9
		c-0.3-0.6-0.4-0.9-0.4-1.1c0-0.5,0.5-0.4,1.4,0.4c3.5,2.5,9.2,3.7,17.1,3.7s16-1.2,24.2-3.6c8.3-2.4,15.4-5.9,21.3-10.4
		c4.5-3.4,7.8-6.8,10.2-10.3c2.4-3.6,3.6-6.9,3.6-9.7C98.7,140.4,97.9,137.8,96.3,135.5z M60.6,128.6h1.1c0.4,0,0.6,0.1,0.6,0.3
		c0,0.4-0.2,0.9-0.7,1.3c-4.9,5.5-10.2,12.4-15.9,20.7c-5.6,8.3-9.3,14.6-10.8,18.8c-0.2,0.5-0.4,0.7-0.6,0.7
		c-0.5,0-0.8-0.3-0.8-0.9c0-3.2,4.2-10.8,12.7-22.8C54.8,134.7,59.5,128.6,60.6,128.6z"/>
	<path class="st1" d="M111,154.8c-2.4,2.5-4.4,5.6-6,9.4c-1.6,3.8-2.4,6.4-2.4,8c0,1.5,0.6,2.3,1.8,2.3c1.2,0,3.2-0.9,5.9-2.6
		c2.8-1.8,5.9-4.3,9.4-7.5c0.8-0.7,1.1-0.6,1.1,0.3c0,0.1-0.1,0.2-0.2,0.4c-2.8,2.5-5.1,4.5-7,6.1c-1.9,1.6-4.2,3.1-6.8,4.5
		c-2.6,1.4-4.8,2.2-6.5,2.2c-2.1,0-3.6-0.5-4.6-1.4c-1-0.9-1.5-2-1.5-3.1c0-2.1,0.4-3.8,1.1-5c0.8-1.2,2-2.9,3.8-5.1
		c-0.6,0.5-1.6,1.4-3,2.6c-1.4,1.2-2.3,2.1-2.8,2.5c-0.5,0.4-0.8,0.3-0.8-0.4c0-0.4,0.5-1,1.4-1.8c0.9-0.8,2.9-2.7,6-5.8
		c3.1-3.1,5.2-5,6.3-5.5c1.1-0.6,2.1-0.9,2.8-0.9c0.7,0,1.3,0.1,1.6,0.3C111.1,154.4,111.2,154.6,111,154.8z M112.2,150.2
		c-0.6-0.5-0.9-1.3-0.8-2.3c0.1-1,0.6-2.1,1.6-3.2c0.9-1.1,2.2-1.7,3.7-1.7c0.5,0,1,0.2,1.5,0.7c0.5,0.4,0.7,1.2,0.6,2.2
		c-0.1,1-0.6,2-1.4,2.9c-0.8,0.9-1.7,1.5-2.7,1.8C113.6,150.8,112.8,150.7,112.2,150.2z"/>
	<path class="st1" d="M150.1,163.5c-0.6,0.8-1.3,1.6-2,2.5s-1.5,2.1-2.5,3.6s-1.5,2.8-1.5,3.9s0.4,1.6,1.3,1.6s2.4-0.6,4.4-1.7
		c4.1-2.3,8.5-5.9,13.5-10.6c0.6-0.6,1-0.7,1.1-0.3c0,0.1,0,0.2,0,0.4s-0.1,0.4-0.3,0.6c-10,9.5-17.2,14.3-21.7,14.3
		c-1.3,0-2.4-0.5-3.3-1.4c-0.9-0.9-1.3-2-1.3-3.2s0.5-3.1,1.6-5.6c-2.6,3.3-5.4,5.8-8.4,7.6c-3,1.8-5.3,2.7-7,2.7
		c-1.7,0-3.1-0.5-4.3-1.5c-1.2-1-1.8-2.3-1.8-3.8c0-4.3,1.9-8.6,5.7-12.8c2.9-3.1,6.5-5.3,10.8-6.6c1.9-0.6,3.8-1,5.6-1
		c1.8,0,3.6,0.5,5.3,1.5c1.7,1,2.8,2.2,3.3,3.7c1.7,0,3,0.6,3.7,1.9c0.1,0.2,0.2,0.5,0.2,0.9c0,0.4-0.2,0.9-0.7,1.4
		C151.3,162.1,150.8,162.7,150.1,163.5z M143.8,154.8c-1.2,0-2.7,0.4-4.3,1.1c-3,1.3-5.8,3.5-8.4,6.7c-4.2,5-6.3,8.7-6.3,11.1
		c0,1.2,0.5,1.8,1.5,1.8c0.8,0,2.2-0.5,4-1.6c1.9-1.1,4.4-3.1,7.4-6.2c0.2-0.2,0.8-0.8,2-1.9c1.2-1.1,2.1-2.1,3-2.9
		c2.7-2.9,4.1-4.9,4.1-6.2C146.6,155.4,145.7,154.8,143.8,154.8z"/>
	<path class="st1" d="M187.9,171.5c22.5-34.6,39.8-51.9,51.9-51.9c1.9,0,3.1,0.5,3.8,1.5c0.1,0.2,0.2,0.3,0.2,0.5
		c0,0.1-0.1,0.3-0.4,0.3c-0.3,0.1-0.5,0.1-0.8,0c-0.3-0.1-0.5-0.1-0.7-0.1c-3.4,0-7.5,1.8-12.5,5.4c-5,3.6-9.9,8.1-14.9,13.6
		c-5,5.5-9.8,11.4-14.6,17.7c-9.3,12.1-15.6,21.1-18.7,26.9c-0.2,0.4-0.4,0.6-0.7,0.6c-0.2,0-0.4-0.1-0.7-0.2
		c-0.3-0.1-0.3-0.5,0-0.9c2.7-4.5,4.1-7,4.3-7.3c-3.5,1.6-6,2.5-7.3,2.5c-0.2,0-0.3-0.1-0.3-0.2c5.4-20.4,8.2-35.2,8.2-44.5
		c0-2.5-0.3-4.9-0.9-7.3c-0.6-2.3-1.4-3.9-2.6-4.9c-1.2-0.9-2.3-1.4-3.6-1.4c-2,0-4,1.2-6,3.6c-2,2.4-4,5.8-6,10.2
		c-1.9,4.4-2.9,9.1-2.9,14c0,0.8,0,1.5,0.1,2.3c0.1,0.8-0.1,1.1-0.4,1.1c-0.1-0.1-0.2-0.2-0.3-0.5c-0.8-1.5-1.1-3.2-1.1-5.1
		c0-6.7,0.9-11.8,2.7-15.2c1.8-3.5,4-6.2,6.7-8.4c3.8-3,7.3-4.6,10.5-4.6c1.9,0,3.6,0.6,5.4,1.7c4.4,2.9,6.6,9.5,6.6,20
		C192.8,149.2,191.1,159.4,187.9,171.5z"/>
	<path class="st1" d="M218.6,154.8c-2.4,2.5-4.4,5.6-6,9.4c-1.6,3.8-2.4,6.4-2.4,8c0,1.5,0.6,2.3,1.8,2.3c1.2,0,3.2-0.9,5.9-2.6
		s5.9-4.3,9.4-7.5c0.8-0.7,1.1-0.6,1.1,0.3c0,0.1-0.1,0.2-0.2,0.4c-2.8,2.5-5.1,4.5-7,6.1s-4.2,3.1-6.8,4.5
		c-2.6,1.4-4.8,2.2-6.5,2.2c-2.1,0-3.6-0.5-4.6-1.4c-1-0.9-1.5-2-1.5-3.1c0-2.1,0.4-3.8,1.1-5c0.8-1.2,2-2.9,3.8-5.1
		c-0.6,0.5-1.6,1.4-3,2.6c-1.4,1.2-2.3,2.1-2.8,2.5c-0.5,0.4-0.8,0.3-0.8-0.4c0-0.4,0.5-1,1.4-1.8c0.9-0.8,2.9-2.7,6-5.8
		c3.1-3.1,5.2-5,6.3-5.5c1.1-0.6,2.1-0.9,2.8-0.9c0.7,0,1.3,0.1,1.6,0.3C218.7,154.4,218.7,154.6,218.6,154.8z M219.7,150.2
		c-0.6-0.5-0.9-1.3-0.8-2.3c0.1-1,0.6-2.1,1.6-3.2c0.9-1.1,2.2-1.7,3.7-1.7c0.5,0,1,0.2,1.5,0.7c0.5,0.4,0.7,1.2,0.6,2.2
		c-0.1,1-0.6,2-1.4,2.9c-0.8,0.9-1.7,1.5-2.7,1.8C221.2,150.8,220.3,150.7,219.7,150.2z"/>
	<path class="st1" d="M230.4,169c-1.6,3.9-2.3,7.1-2.3,9.8c0,2.6,0.4,4.4,1.1,5.3c0.2,0.2,0.2,0.4,0.1,0.5c-0.1,0.1-0.2,0.1-0.3,0.1
		c-0.1,0-0.1,0-0.3-0.1c-1.9-1.6-2.9-3.3-3.1-5.2c-0.1-0.6-0.2-1.3-0.2-2.1c0-3.4,1-7.6,3-12.6c-2.9,2.9-4.4,4-4.5,3.3
		c0.1-0.5,0.5-1.1,1.2-1.8c0.8-0.7,2.5-2.7,5.1-5.9c5.8-13,13.4-23.9,22.8-32.6c4.9-4.6,9.3-6.9,13.2-6.9c3.2,0,5.1,1.3,5.6,4
		c0.1,0.4,0.2,0.9,0.2,1.3c0,5-4.9,10.9-14.8,17.6c-3.4,2.3-6.5,4.1-9.4,5.4c-0.7,0.3-1.1,0.3-1.2-0.1c-0.1-0.4,0.2-0.7,0.9-1
		c2.7-1.2,5.7-3.1,9.1-5.5c3.4-2.5,6.5-5.1,9.2-8c2.7-2.9,4.1-5.1,4.1-6.7c0-1-0.6-1.5-1.7-1.5c-1.1,0-2.7,0.6-4.8,1.9
		c-5.8,3.6-12.1,9.9-19,18.8c-4.3,5.6-7.8,10.7-10.6,15.3c4.1-5.5,8.2-9.1,12.5-10.8c1.6-0.6,3-0.9,4.1-0.9c1.1,0,2.1,0.2,2.9,0.5
		c1.6,0.7,2.3,1.9,2.3,3.5c0,2.9-1.7,5.7-5.1,8.3c-2,1.4-4.2,2.4-6.7,3c-2.5,0.6-4.4,0.9-5.7,0.9c-1.3,0-2.3-0.2-3.2-0.5
		c1.9,2.4,4.3,4.5,7.3,6.2c3,1.8,5.4,2.6,7.3,2.6c1.2,0,2.2-0.3,2.9-0.9c0.7-0.6,1-1.1,1-1.5c0-0.4,0.1-0.6,0.2-0.6
		c0.1,0,0.2,0.1,0.2,0.2c0,2.1-1.5,3.5-4.6,4.2c-1.3,0.3-2.9,0.4-4.8,0.4c-1.9,0-4.1-0.6-6.6-1.8C234.1,173.5,231.6,171.4,230.4,169
		z M249.6,157.2c0-2.1-1-3.1-2.9-3.1c-2.2,0-4.6,1.2-7.3,3.7c-2.7,2.5-4.7,4.5-6,6.1c0.1,0.3,0.3,0.7,0.7,1.3
		c0.7,0.4,1.5,0.6,2.4,0.6c0.9,0,2.4-0.3,4.4-0.8c2-0.6,4-1.6,5.9-3C248.6,160.6,249.6,159,249.6,157.2z"/>
	<g>
		<polygon points="215.1,71.7 231.9,90.1 231.1,90.9 214.1,72.7 		"/>
	</g>
</g>
<g id="Слой_5">
</g>
</svg>
